<svg viewBox="0 0 200 200" xmlns="http://www.w3.org/2000/svg">
  <!-- Open Bible Icon - Modern professional design (DALL-E 3 inspired)
       Clean lineart style with navy blue and accent blue color
  -->

  <!-- Background circle for PWA -->
  <circle cx="100" cy="100" r="95" fill="#f5f5f5" stroke="none" />

  <!-- Left page -->
  <path d="M 50 50 Q 50 40 60 40 L 95 40 L 95 160 L 60 160 Q 50 160 50 150 Z"
        fill="white"
        stroke="#1a3a52"
        stroke-width="4"
        stroke-linejoin="round"
        stroke-linecap="round" />

  <!-- Right page -->
  <path d="M 105 40 L 140 40 Q 150 40 150 50 L 150 150 Q 150 160 140 160 L 105 160 Z"
        fill="white"
        stroke="#1a3a52"
        stroke-width="4"
        stroke-linejoin="round"
        stroke-linecap="round" />

  <!-- Center binding/spine -->
  <line x1="95" y1="40" x2="105" y2="40"
        stroke="#1a3a52"
        stroke-width="4"
        stroke-linecap="round" />
  <line x1="95" y1="160" x2="105" y2="160"
        stroke="#1a3a52"
        stroke-width="4"
        stroke-linecap="round" />

  <!-- Text lines on left page -->
  <line x1="62" y1="62" x2="88" y2="62"
        stroke="#1a3a52"
        stroke-width="2.5"
        stroke-linecap="round"
        opacity="0.7" />
  <line x1="62" y1="78" x2="92" y2="78"
        stroke="#1a3a52"
        stroke-width="2.5"
        stroke-linecap="round"
        opacity="0.7" />
  <line x1="62" y1="94" x2="90" y2="94"
        stroke="#1a3a52"
        stroke-width="2.5"
        stroke-linecap="round"
        opacity="0.7" />
  <line x1="62" y1="110" x2="88" y2="110"
        stroke="#1a3a52"
        stroke-width="2.5"
        stroke-linecap="round"
        opacity="0.7" />
  <line x1="62" y1="126" x2="86" y2="126"
        stroke="#1a3a52"
        stroke-width="2.5"
        stroke-linecap="round"
        opacity="0.7" />
  <line x1="62" y1="142" x2="88" y2="142"
        stroke="#1a3a52"
        stroke-width="2.5"
        stroke-linecap="round"
        opacity="0.7" />

  <!-- Text lines on right page -->
  <line x1="115" y1="62" x2="141" y2="62"
        stroke="#1a3a52"
        stroke-width="2.5"
        stroke-linecap="round"
        opacity="0.7" />
  <line x1="115" y1="78" x2="145" y2="78"
        stroke="#1a3a52"
        stroke-width="2.5"
        stroke-linecap="round"
        opacity="0.7" />
  <line x1="115" y1="94" x2="143" y2="94"
        stroke="#1a3a52"
        stroke-width="2.5"
        stroke-linecap="round"
        opacity="0.7" />
  <line x1="115" y1="110" x2="141" y2="110"
        stroke="#1a3a52"
        stroke-width="2.5"
        stroke-linecap="round"
        opacity="0.7" />
  <line x1="115" y1="126" x2="139" y2="126"
        stroke="#1a3a52"
        stroke-width="2.5"
        stroke-linecap="round"
        opacity="0.7" />
  <line x1="115" y1="142" x2="141" y2="142"
        stroke="#1a3a52"
        stroke-width="2.5"
        stroke-linecap="round"
        opacity="0.7" />

  <!-- Blue bookmark ribbon (accent color) -->
  <path d="M 100 35 L 107 35 Q 110 35 110 40 L 110 85 Q 107 90 100 85 Q 93 90 90 85 L 90 40 Q 90 35 93 35 Z"
        fill="#2563eb"
        stroke="none" />

  <!-- Bookmark accent lines for detail -->
  <path d="M 100 50 Q 100 55 100 70"
        fill="none"
        stroke="white"
        stroke-width="1.5"
        stroke-linecap="round"
        opacity="0.6" />

</svg>
